HIERARCHY
ROOT Hips
{
  OFFSET 83.5936 86.9661 0.498508
  CHANNELS 6 Xposition Yposition Zposition Zrotation Xrotation Yrotation
  JOINT ToSpine
  {
    OFFSET -2.69724 7.43032 -0.144315
    CHANNELS 3 Zrotation Xrotation Yrotation
    JOINT Spine
    {
      OFFSET -0.0310711 10.7595 1.96963
      CHANNELS 3 Zrotation Xrotation Yrotation
      JOINT Spine1
      {
        OFFSET 13.1342 3.43533 0.764692
        CHANNELS 3 Zrotation Xrotation Yrotation
        JOINT Neck
        {
          OFFSET 29.8703 7.82586 -0.130764
          CHANNELS 3 Zrotation Xrotation Yrotation
          JOINT Head
          {
            OFFSET 9.52751 0.295786 -0.907742
            CHANNELS 3 Zrotation Xrotation Yrotation
            End Site
            {
              OFFSET 16.4037 0.713936 2.7358
            }
          }
        }
        JOINT LeftShoulder
        {
          OFFSET 27.5574 4.95586 2.47156
          CHANNELS 3 Zrotation Xrotation Yrotation
          JOINT LeftArm
          {
            OFFSET 1.20734 -0.998971 20.1238
            CHANNELS 3 Zrotation Xrotation Yrotation
            JOINT LeftForeArm
            {
              OFFSET 26.8049 -0.0536703 -0.155908
              CHANNELS 3 Zrotation Xrotation Yrotation
              JOINT LeftHand
              {
                OFFSET 26.6817 0 0.320147
                CHANNELS 3 Zrotation Xrotation Yrotation
                End Site
                {
                  OFFSET 18.6119 0 0.382219
                }
              }
            }
          }
        }
        JOINT RightShoulder
        {
          OFFSET 27.5927 4.71444 -2.65209
          CHANNELS 3 Zrotation Xrotation Yrotation
          JOINT RightArm
          {
            OFFSET 2.83739 -1.17114 -18.7564
            CHANNELS 3 Zrotation Xrotation Yrotation
            JOINT RightForeArm
            {
              OFFSET 28.839 -0.0548439 1.22491
              CHANNELS 3 Zrotation Xrotation Yrotation
              JOINT RightHand
              {
                OFFSET 26.5114 0 -0.101894
                CHANNELS 3 Zrotation Xrotation Yrotation
                End Site
                {
                  OFFSET 18.2168 0 0
                }
              }
            }
          }
        }
      }
    }
  }
  JOINT LeftUpLeg
  {
    OFFSET -4.76168 -1.9167 -10.2353
    CHANNELS 3 Zrotation Xrotation Yrotation
    JOINT LeftLeg
    {
      OFFSET 2.55951 -42.0585 -8.02213
      CHANNELS 3 Zrotation Xrotation Yrotation
      JOINT LeftFoot
      {
        OFFSET 3.16357 -42.5282 -3.95426
        CHANNELS 3 Zrotation Xrotation Yrotation
        JOINT LeftToeBase
        {
          OFFSET 0.346054 -6.02161 12.8035
          CHANNELS 3 Zrotation Xrotation Yrotation
          End Site
          {
            OFFSET 0.134235 -1.35082 5.13018
          }
        }
      }
    }
  }
  JOINT RightUpLeg
  {
    OFFSET -4.94151 -1.41743 10.6446
    CHANNELS 3 Zrotation Xrotation Yrotation
    JOINT RightLeg
    {
      OFFSET -2.56294 -42.0364 -7.94377
      CHANNELS 3 Zrotation Xrotation Yrotation
      JOINT RightFoot
      {
        OFFSET -3.0952 -42.555 -4.02241
        CHANNELS 3 Zrotation Xrotation Yrotation
        JOINT RightToeBase
        {
          OFFSET -0.0828122 -6.13587 12.8035
          CHANNELS 3 Zrotation Xrotation Yrotation
          End Site
          {
            OFFSET -0.131328 -1.35082 5.13018
          }
        }
      }
    }
  }
}
MOTION
Frames:	11
Frame Time:	0.0333333
68.0425 92.873 3.17982 -68.0296 -39.894 -168.586 -70.1915 0 88.8779 78.0065 71.2895 14.8972 5.22931 22.7209 -4.04143 -136.679 8.19695 -166.575 -146.325 42.1079 -179.371 -0.771135 -18.0286 -33.7061 -132.188 4.2805 -82.1217 10.4667 3.62928 -70.5717 0.420957 0.000576128 0.35866 -1.13371 7.57733 29.1127 -43.1822 -21.0617 157.666 9.78332 2.09376 101.609 0.58676 0.000331187 0.0646652 -41.2746 14.8159 102.203 -1.68956 34.4856 -2.10881 -2.10083 0.177937 0.198061 2.54519 -3.58602 -5.84639 -53.5501 -7.34737 99.3631 2.00492 40.8882 1.51035 2.18977 -24.0478 2.26431 1.67112 0.638691 -10.4775 
68.0256 92.873 3.20222 -67.9717 -39.867 -168.558 -70.1915 0 88.8779 78.5629 71.0426 15.1144 5.44377 22.7735 -5.3387 -136.649 8.02833 -166.767 -146.417 42.026 -179.098 -0.680271 -17.8209 -33.1222 -132.083 4.39917 -82.1135 10.3605 3.57816 -70.6337 0.420957 0.000576128 0.35866 -1.2092 7.59259 30.1071 -43.539 -20.6415 157.22 9.69771 2.08901 101.682 0.58676 0.000331187 0.0646652 -41.2295 14.8055 102.192 -1.69153 34.4931 -2.12091 -2.29049 0.275285 0.23238 2.61736 -3.84913 -5.61644 -53.4348 -7.40814 99.2625 1.99734 40.9297 1.43389 2.29913 -23.9971 2.26835 1.60503 0.605943 -10.0751 
68.0029 92.8762 3.24285 -67.9831 -39.812 -168.574 -70.1915 0 88.8779 77.7145 71.268 15.1582 5.19066 22.7185 -3.99398 -136.548 8.18619 -166.762 -146.145 42.0712 -179.506 -0.748853 -17.9911 -33.5235 -132.151 4.46716 -82.0844 10.5141 3.62285 -70.677 0.420957 0.000576128 0.35866 -1.13778 7.47869 29.402 -43.3042 -20.9777 157.441 9.88415 2.09754 101.515 0.58676 0.000331187 0.0646652 -41.2558 14.8026 102.16 -1.66862 34.5272 -1.89078 -2.11035 0.160026 0.197583 2.63997 -3.85285 -5.75812 -53.4661 -7.3664 99.3594 2.01279 40.9354 1.55293 1.73888 -23.9243 2.21275 1.69351 0.58224 -10.6018 
67.9656 92.884 3.3047 -68.0172 -39.8124 -168.544 -70.1915 0 88.8779 76.8495 71.2601 15.9156 5.4598 22.6846 -3.71356 -136.582 8.2545 -166.596 -146.367 42.1843 -179.234 -0.78018 -18.1033 -33.5925 -132.013 4.38657 -82.1436 10.0989 3.48106 -70.6607 0.420957 0.000576128 0.35866 -1.10882 7.45493 29.0568 -43.2476 -21.2989 157.626 9.42747 2.00753 101.548 0.58676 0.000331187 0.0646652 -41.2969 14.8204 102.078 -1.67403 34.567 -1.91259 -2.12837 0.127676 0.196817 2.70867 -4.10386 -5.53179 -53.5443 -7.33835 99.3035 2.04131 40.9479 1.77169 2.26782 -23.9273 2.25821 1.78182 0.549367 -11.1273 
67.9458 92.9168 3.36713 -68.0389 -39.6631 -168.616 -70.1915 0 88.8779 77.0881 71.3091 15.8307 5.36323 22.78 -3.88299 -136.776 8.22936 -166.602 -146.613 42.2126 -179.253 -0.761369 -18.0624 -33.4681 -131.699 4.30762 -82.1675 9.98598 3.40794 -70.8283 0.420957 0.000576128 0.35866 -1.10363 7.38285 29.1558 -43.1844 -21.2318 157.564 9.71753 2.05164 101.456 0.58676 0.000331187 0.0646652 -41.3849 14.845 102.191 -1.69944 34.5612 -2.1462 -2.3125 0.24732 0.232538 2.64973 -4.15581 -4.98386 -53.5142 -7.38723 99.3275 2.02458 40.8867 1.68821 1.98479 -23.811 2.22196 1.73439 0.554899 -10.8429 
67.9033 92.9069 3.46154 -68.1671 -39.534 -168.739 -70.1915 0 88.8779 76.275 71.3241 16.6506 5.66615 22.833 -3.85196 -136.674 8.34618 -166.565 -146.327 42.2617 -179.365 -0.802841 -18.2907 -33.3156 -131.625 4.09734 -81.8442 9.99649 3.42685 -70.7524 0.420957 0.000576128 0.35866 -1.106 7.34756 29.2741 -43.332 -21.0546 157.339 9.67055 2.03609 101.424 0.58676 0.000331187 0.0646652 -41.5152 14.9117 102.343 -1.70394 34.6504 -2.12579 -2.00737 0.241082 0.191864 2.69195 -4.42704 -4.49767 -53.6441 -7.34855 99.543 2.02021 40.8344 1.69668 2.14168 -23.7984 2.23385 1.77516 0.533953 -11.085 
67.8598 92.8847 3.5382 -68.2166 -39.3504 -168.602 -70.1915 0 88.8779 75.6836 71.1645 17.265 5.87683 22.6216 -3.53161 -137.043 8.37651 -165.79 -146.848 42.3598 -178.738 -0.745961 -18.1007 -33.1426 -130.886 3.39537 -81.1737 10.1956 3.5139 -70.6653 0.420957 0.000576128 0.35866 -1.11225 7.48369 29.0366 -43.2681 -21.0434 157.62 9.84906 2.0486 101.291 0.58676 0.000331187 0.0646652 -41.3668 15.1628 102.189 -1.75695 35.0864 -2.36546 -1.87899 0.191878 0.170379 2.77072 -4.86991 -3.73489 -53.7731 -7.02245 99.8231 1.9946 40.678 1.62 2.91625 -23.8327 2.30296 1.78563 0.513569 -11.145 
67.8727 92.8047 3.62473 -68.2744 -39.1353 -168.357 -70.1915 0 88.8779 76.8013 71.2154 16.4905 5.43454 22.6742 -3.69186 -137.119 8.00629 -166.582 -146.605 42.0159 -179.36 -0.702483 -18.114 -32.5195 -130.707 2.91071 -80.5527 9.87134 3.50386 -70.1484 0.420957 0.000576128 0.35866 -1.14302 7.24375 30.0559 -43.4174 -20.5311 157.036 9.95023 2.10439 101.467 0.58676 0.000331187 0.0646652 -40.8887 15.5353 101.844 -1.80866 36.0252 -2.30742 -2.03152 -0.225986 0.150386 2.68451 -4.83012 -3.24513 -53.8262 -6.67104 99.8757 1.99148 40.6354 1.62996 3.23192 -23.7264 2.31736 1.86165 0.460154 -11.5967 
67.8811 92.6917 3.71682 -68.1714 -38.759 -167.869 -70.1915 0 88.8779 76.2282 71.2205 17.3556 5.39302 22.6452 -3.26775 -137.101 7.9875 -166.517 -146.569 42.0072 -179.194 -0.636629 -18.029 -31.8838 -129.664 2.50511 -79.5829 8.6189 3.31096 -68.7026 0.420957 0.000576128 0.35866 -1.15948 7.26254 30.242 -43.6858 -20.4375 156.605 10.3832 2.21487 101.554 0.58676 0.000331187 0.0646652 -40.1089 15.7948 100.751 -1.7841 37.1028 -1.50057 -2.26779 -0.972636 0.107445 2.48695 -4.34677 -3.32204 -53.5111 -6.05833 99.966 2.02319 40.9509 1.62353 2.9276 -23.7862 2.29867 2.00217 0.298167 -12.4331 
67.937 92.5873 3.96986 -67.9093 -39.0047 -167.254 -70.1915 0 88.8779 76.5709 71.0453 17.2896 5.02465 22.3944 -2.92231 -137.112 8.07872 -166.52 -145.921 41.9778 -179.553 -0.557412 -17.8734 -31.2541 -127.428 1.99851 -77.3352 7.35463 3.14669 -66.5877 0.420957 0.000576128 0.35866 -1.16329 7.05247 30.8501 -43.6089 -20.3839 156.111 9.95296 2.16179 101.759 0.58676 0.000331187 0.0646652 -39.1182 15.1549 98.6381 -1.67007 38.2346 0.0801199 -2.84194 -1.75773 0.0960076 2.25971 -3.69385 -3.67342 -53.5668 -6.00635 99.4795 2.00967 40.8659 1.58569 3.57522 -23.8449 2.36019 2.11939 0.308948 -13.1486 
68.1058 92.5856 4.29482 -67.3004 -39.3741 -166.728 -70.1915 0 88.8779 76.3819 70.9803 17.4627 4.47842 22.1744 -2.15416 -137.714 8.36525 -165.024 -147.107 42.4075 -178.362 -0.618188 -17.8724 -32.1003 -123.033 0.646662 -73.4894 4.54314 2.18199 -64.255 0.420957 0.000576128 0.35866 -1.1514 6.97961 30.8747 -43.1503 -20.6427 156.004 9.65341 2.08869 101.718 0.58676 0.000331187 0.0646652 -38.1399 13.8747 96.4954 -1.57871 38.9383 1.20924 -3.43556 -1.56373 0.184756 2.2035 -3.73832 -3.18049 -53.3888 -6.22938 99.2586 1.87475 40.6874 0.654764 4.4506 -23.6492 2.40958 1.94331 0.430766 -12.0876 
